<svg width="21" height="20" viewBox="0 0 21 20" fill="none" xmlns="http://www.w3.org/2000/svg">
<path d="M14.5 2.49992H17.8333C18.0543 2.49992 18.2663 2.58772 18.4226 2.744C18.5789 2.90028 18.6667 3.11224 18.6667 3.33325V16.6666C18.6667 16.8876 18.5789 17.0996 18.4226 17.2558C18.2663 17.4121 18.0543 17.4999 17.8333 17.4999H2.83333C2.61232 17.4999 2.40036 17.4121 2.24408 17.2558C2.0878 17.0996 2 16.8876 2 16.6666V3.33325C2 3.11224 2.0878 2.90028 2.24408 2.744C2.40036 2.58772 2.61232 2.49992 2.83333 2.49992H6.16667V0.833252H7.83333V2.49992H12.8333V0.833252H14.5V2.49992ZM17 9.16658H3.66667V15.8333H17V9.16658ZM12.8333 4.16659H7.83333V5.83325H6.16667V4.16659H3.66667V7.49992H17V4.16659H14.5V5.83325H12.8333V4.16659ZM5.33333 10.8333H7V12.4999H5.33333V10.8333ZM9.5 10.8333H11.1667V12.4999H9.5V10.8333ZM13.6667 10.8333H15.3333V12.4999H13.6667V10.8333Z" fill="#FB7D54"/>
</svg>
