<svg width="24" height="24" viewBox="0 0 24 24" fill="none" xmlns="http://www.w3.org/2000/svg">
<g id="headphone-fill">
<path id="Vector" d="M4 12.001H7C7.53043 12.001 8.03914 12.2117 8.41421 12.5868C8.78929 12.9619 9 13.4706 9 14.0011V19.0012C9 19.5316 8.78929 20.0404 8.41421 20.4155C8.03914 20.7905 7.53043 21.0013 7 21.0013H4C3.46957 21.0013 2.96086 20.7905 2.58579 20.4155C2.21071 20.0404 2 19.5316 2 19.0012V12.001C2 6.47786 6.477 2.00073 12 2.00073C17.523 2.00073 22 6.47786 22 12.001V19.0012C22 19.5316 21.7893 20.0404 21.4142 20.4155C21.0391 20.7905 20.5304 21.0013 20 21.0013H17C16.4696 21.0013 15.9609 20.7905 15.5858 20.4155C15.2107 20.0404 15 19.5316 15 19.0012V14.0011C15 13.4706 15.2107 12.9619 15.5858 12.5868C15.9609 12.2117 16.4696 12.001 17 12.001H20C20 9.87922 19.1571 7.84433 17.6569 6.344C16.1566 4.84367 14.1217 4.00079 12 4.00079C9.87827 4.00079 7.84344 4.84367 6.34315 6.344C4.84286 7.84433 4 9.87922 4 12.001Z" fill="#008573"/>
</g>
</svg>
