<svg width="20" height="20" viewBox="0 0 20 20" fill="none" xmlns="http://www.w3.org/2000/svg">
<path d="M4.99999 15.8337H2.49999C2.27898 15.8337 2.06701 15.7459 1.91073 15.5896C1.75445 15.4333 1.66666 15.2213 1.66666 15.0003V6.66699C1.66666 6.44598 1.75445 6.23402 1.91073 6.07774C2.06701 5.92146 2.27898 5.83366 2.49999 5.83366H4.99999V2.50033C4.99999 2.27931 5.08779 2.06735 5.24407 1.91107C5.40035 1.75479 5.61231 1.66699 5.83332 1.66699H14.1667C14.3877 1.66699 14.5996 1.75479 14.7559 1.91107C14.9122 2.06735 15 2.27931 15 2.50033V5.83366H17.5C17.721 5.83366 17.933 5.92146 18.0892 6.07774C18.2455 6.23402 18.3333 6.44598 18.3333 6.66699V15.0003C18.3333 15.2213 18.2455 15.4333 18.0892 15.5896C17.933 15.7459 17.721 15.8337 17.5 15.8337H15V17.5003C15 17.7213 14.9122 17.9333 14.7559 18.0896C14.5996 18.2459 14.3877 18.3337 14.1667 18.3337H5.83332C5.61231 18.3337 5.40035 18.2459 5.24407 18.0896C5.08779 17.9333 4.99999 17.7213 4.99999 17.5003V15.8337ZM4.99999 14.167V13.3337C4.99999 13.1126 5.08779 12.9007 5.24407 12.7444C5.40035 12.5881 5.61231 12.5003 5.83332 12.5003H14.1667C14.3877 12.5003 14.5996 12.5881 14.7559 12.7444C14.9122 12.9007 15 13.1126 15 13.3337V14.167H16.6667V7.50033H3.33332V14.167H4.99999ZM6.66666 3.33366V5.83366H13.3333V3.33366H6.66666ZM6.66666 14.167V16.667H13.3333V14.167H6.66666ZM4.16666 8.33366H6.66666V10.0003H4.16666V8.33366Z" fill="#222222"/>
</svg>
