<svg width="21" height="20" viewBox="0 0 21 20" fill="none" xmlns="http://www.w3.org/2000/svg">
<path d="M4 18.3333C4 16.5651 4.70238 14.8694 5.95262 13.6192C7.20286 12.369 8.89856 11.6666 10.6667 11.6666C12.4348 11.6666 14.1305 12.369 15.3807 13.6192C16.631 14.8694 17.3333 16.5651 17.3333 18.3333H15.6667C15.6667 17.0072 15.1399 15.7354 14.2022 14.7977C13.2645 13.86 11.9927 13.3333 10.6667 13.3333C9.34058 13.3333 8.06881 13.86 7.13113 14.7977C6.19345 15.7354 5.66667 17.0072 5.66667 18.3333H4ZM10.6667 10.8333C7.90417 10.8333 5.66667 8.59575 5.66667 5.83325C5.66667 3.07075 7.90417 0.833252 10.6667 0.833252C13.4292 0.833252 15.6667 3.07075 15.6667 5.83325C15.6667 8.59575 13.4292 10.8333 10.6667 10.8333ZM10.6667 9.16658C12.5083 9.16658 14 7.67492 14 5.83325C14 3.99159 12.5083 2.49992 10.6667 2.49992C8.825 2.49992 7.33333 3.99159 7.33333 5.83325C7.33333 7.67492 8.825 9.16658 10.6667 9.16658Z" fill="#FB7D54"/>
</svg>
