<svg width="20" height="20" viewBox="0 0 20 20" fill="none" xmlns="http://www.w3.org/2000/svg">
<g id="artboard-2-line">
<path id="Vector" d="M6.66602 6.6665V13.3332H13.3327V6.6665H6.66602ZM4.99935 4.99984H14.9993V14.9998H4.99935V4.99984ZM4.99935 1.6665H6.66602V4.1665H4.99935V1.6665ZM4.99935 15.8332H6.66602V18.3332H4.99935V15.8332ZM1.66602 4.99984H4.16602V6.6665H1.66602V4.99984ZM1.66602 13.3332H4.16602V14.9998H1.66602V13.3332ZM15.8327 4.99984H18.3327V6.6665H15.8327V4.99984ZM15.8327 13.3332H18.3327V14.9998H15.8327V13.3332ZM13.3327 1.6665H14.9993V4.1665H13.3327V1.6665ZM13.3327 15.8332H14.9993V18.3332H13.3327V15.8332Z" fill="#5E5E5E"/>
</g>
</svg>
