<svg width="20" height="20" viewBox="0 0 20 20" fill="none" xmlns="http://www.w3.org/2000/svg">
<g id="hotel-bed-line">
<path id="Vector" d="M18.3327 9.16683V16.6668H16.666V14.1668H3.33268V16.6668H1.66602V3.3335H3.33268V11.6668H9.99935V5.8335H14.9993C15.8834 5.8335 16.7313 6.18469 17.3564 6.80981C17.9815 7.43493 18.3327 8.28277 18.3327 9.16683ZM16.666 11.6668V9.16683C16.666 8.7248 16.4904 8.30088 16.1779 7.98832C15.8653 7.67576 15.4414 7.50016 14.9993 7.50016H11.666V11.6668H16.666ZM6.66602 9.16683C6.88703 9.16683 7.09899 9.07903 7.25527 8.92275C7.41155 8.76647 7.49935 8.55451 7.49935 8.3335C7.49935 8.11248 7.41155 7.90052 7.25527 7.74424C7.09899 7.58796 6.88703 7.50016 6.66602 7.50016C6.445 7.50016 6.23304 7.58796 6.07676 7.74424C5.92048 7.90052 5.83268 8.11248 5.83268 8.3335C5.83268 8.55451 5.92048 8.76647 6.07676 8.92275C6.23304 9.07903 6.445 9.16683 6.66602 9.16683ZM6.66602 10.8335C6.00297 10.8335 5.36709 10.5701 4.89825 10.1013C4.42941 9.63242 4.16602 8.99654 4.16602 8.3335C4.16602 7.67045 4.42941 7.03457 4.89825 6.56573C5.36709 6.09689 6.00297 5.8335 6.66602 5.8335C7.32906 5.8335 7.96494 6.09689 8.43378 6.56573C8.90262 7.03457 9.16602 7.67045 9.16602 8.3335C9.16602 8.99654 8.90262 9.63242 8.43378 10.1013C7.96494 10.5701 7.32906 10.8335 6.66602 10.8335Z" fill="#5E5E5E"/>
</g>
</svg>
