<svg width="50" height="40" viewBox="0 0 50 40" fill="none" xmlns="http://www.w3.org/2000/svg">
<g id="Show">
<path id="Fill 1" fill-rule="evenodd" clip-rule="evenodd" d="M39.3415 5.11515C43.6098 8.4097 47.2439 13.2364 49.8537 19.2727C50.0488 19.7309 50.0488 20.2667 49.8537 20.703C44.6342 32.7757 35.3415 40 25 40H24.9756C14.6585 40 5.36585 32.7757 0.146341 20.703C-0.0487805 20.2667 -0.0487805 19.7309 0.146341 19.2727C5.36585 7.19757 14.6585 0 24.9756 0L25 0C30.1707 0 35.0732 1.79394 39.3415 5.11515ZM15.244 20C15.244 25.3333 19.6099 29.6727 25.0001 29.6727C30.366 29.6727 34.7318 25.3333 34.7318 20C34.7318 14.6424 30.366 10.303 25.0001 10.303C19.6099 10.303 15.244 14.6424 15.244 20Z" fill="#FFA854"/>
<path id="Fill 4" d="M31.0771 19.9922C31.0771 23.3135 28.3454 26.0286 25.0039 26.0286C21.6381 26.0286 18.9064 23.3135 18.9064 19.9922C18.9064 19.5801 18.9552 19.1947 19.0283 18.8068H19.1503C21.8576 18.8068 24.0527 16.6735 24.1503 14.0044C24.4186 13.9583 24.7112 13.9316 25.0039 13.9316C28.3454 13.9316 31.0771 16.6468 31.0771 19.9922Z" fill="#008573"/>
</g>
</svg>
