<svg width="16" height="20" viewBox="0 0 16 20" fill="none" xmlns="http://www.w3.org/2000/svg">
<path d="M14 12.9467V15.304C14.0001 15.4728 13.9361 15.6353 13.8211 15.7588C13.706 15.8823 13.5484 15.9575 13.38 15.9693C13.0887 15.9893 12.8507 16 12.6667 16C6.77533 16 2 11.2247 2 5.33333C2 5.14933 2.01 4.91133 2.03067 4.62C2.04248 4.45163 2.11772 4.29401 2.2412 4.17894C2.36468 4.06387 2.52722 3.99992 2.696 4H5.05333C5.13603 3.99992 5.2158 4.03057 5.27715 4.08601C5.33851 4.14145 5.37706 4.21772 5.38533 4.3C5.40067 4.45333 5.41467 4.57533 5.428 4.668C5.56049 5.59262 5.832 6.49189 6.23333 7.33533C6.29667 7.46867 6.25533 7.628 6.13533 7.71333L4.69667 8.74133C5.5763 10.791 7.2097 12.4244 9.25933 13.304L10.286 11.868C10.328 11.8093 10.3892 11.7673 10.459 11.7491C10.5288 11.7309 10.6028 11.7379 10.668 11.7687C11.5113 12.1692 12.4104 12.4401 13.3347 12.572C13.4273 12.5853 13.5493 12.6 13.7013 12.6147C13.7835 12.6231 13.8596 12.6617 13.9149 12.7231C13.9702 12.7844 14.0008 12.8641 14.0007 12.9467H14Z" fill="#222222"/>
</svg>
