<svg width="40" height="40" viewBox="0 0 40 40" fill="none" xmlns="http://www.w3.org/2000/svg">
<g id="Group">
<path id="Vector" d="M40.023 17.9067H27.8307L38.3893 11.8133L36.2954 8.18667L25.7355 14.28L31.8303 3.72667L28.2028 1.63333L22.1067 12.184V0H17.9163V12.1853L11.8202 1.63333L8.1913 3.72667L14.2861 14.2773L3.7289 8.18667L1.63373 11.8133L12.1923 17.9067H0V22.0946H12.1909L1.63373 28.1881L3.72757 31.8146L14.2874 25.7213L8.1913 36.2746L11.8189 38.3681L17.9163 27.816V40H22.1067V27.5546L28.3148 38.3013L31.717 36.3387L25.5075 25.5894L36.2927 31.8133L38.3879 28.1867L27.8307 22.0933H40.0216V17.9067H40.023ZM20.0115 25.6933C19.2634 25.6934 18.5227 25.5463 17.8316 25.2601C17.1406 24.974 16.5125 24.5546 15.9836 24.0258C15.4546 23.4972 15.0349 22.8694 14.7486 22.1785C14.4623 21.4876 14.3149 20.7472 14.3148 19.9994C14.3146 19.2515 14.4619 18.5109 14.7481 17.82C15.0343 17.1291 15.4537 16.5012 15.9827 15.9724C16.5115 15.4436 17.1393 15.024 17.8304 14.7377C18.5215 14.4515 19.2621 14.3041 20.0101 14.304C21.5207 14.3039 22.9697 14.9036 24.0381 15.9715C25.1064 17.0394 25.7067 18.4878 25.7069 19.9981C25.707 21.5082 25.1072 22.9569 24.039 24.0249C22.9709 25.0931 21.5221 25.6931 20.0115 25.6933Z" fill="url(#paint0_linear_596_1415)"/>
</g>
<defs>
<linearGradient id="paint0_linear_596_1415" x1="20.0115" y1="0" x2="20.0115" y2="40" gradientUnits="userSpaceOnUse">
<stop stop-color="#FA4F1D"/>
<stop offset="1" stop-color="#F88056"/>
</linearGradient>
</defs>
</svg>
