<svg width="60" height="60" viewBox="0 0 60 60" fill="none" xmlns="http://www.w3.org/2000/svg">
<g id="Icon">
<path id="Vector" d="M50 20H32.5L35.305 11.58C35.5553 10.8285 35.6235 10.0284 35.5039 9.24539C35.3844 8.46241 35.0806 7.71903 34.6174 7.07649C34.1543 6.43394 33.5452 5.91061 32.8402 5.54959C32.1352 5.18857 31.3545 5.00021 30.5625 5H30L17.5 18.595L17.5 52.5H45L54.78 31.01L55 30V25C55 23.6739 54.4732 22.4021 53.5355 21.4645C52.5979 20.5268 51.3261 20 50 20Z" fill="#FFA854"/>
<path id="Vector_2" d="M12.5 52.5H10C8.67392 52.5 7.40215 51.9732 6.46447 51.0355C5.52678 50.0979 5 48.8261 5 47.5L5 25C5 23.6739 5.52678 22.4021 6.46447 21.4645C7.40215 20.5268 8.67392 20 10 20H12.5L12.5 52.5Z" fill="#008573"/>
</g>
</svg>
